<?xml version="1.0" encoding="UTF-8"?>
<svg width="209px" height="60px" viewBox="0 0 209 60" version="1.1" xmlns="http://www.w3.org/2000/svg" xmlns:xlink="http://www.w3.org/1999/xlink">
    <!-- Generator: Sketch 52.2 (67145) - http://www.bohemiancoding.com/sketch -->
    <title>icon-left-font-monochrome-white</title>
    <desc>Created with Sketch.</desc>
    <g id="Page-1" stroke="none" stroke-width="1" fill="none" fill-rule="evenodd">
        <g id="icon-left-font-monochrome-white" transform="translate(-1.000000, -1.000000)" fill="#FFFFFF" fill-rule="nonzero">
            <g id="46128508-ea86-1647-953b-01dd95e2f902" transform="translate(0.513271, 0.192873)">
                <path d="M35.4282375,31.340364 C38.1534866,27.1957144 39.5728871,24.2433613 39.4025591,19.1335193 C39.175455,14.1372294 37.0179661,9.76547573 33.7249569,6.5292425 C30.2616196,3.23623324 25.6627618,1.13552043 20.6096959,0.851640325 C15.670182,0.624536239 12.3771727,1.24907248 7.89186702,3.12268119 C7.49443486,3.4065613 7.21055476,3.9175455 7.38088282,4.37175367 C7.60798691,4.82596184 8.1189711,5.10984195 8.57317928,4.82596184 C12.7746049,3.12268119 15.8972861,2.44136893 20.4961438,2.72524904 C25.0950016,2.95235313 29.2396512,4.82596184 32.4191084,7.77831497 C35.4282375,10.7306681 37.4153983,14.7049896 37.5857264,19.2470714 C37.8128305,23.9027051 36.3366539,26.5711782 33.8385089,30.2616196 L22.4833046,47.7486342 C22.0290964,48.4299465 22.4833046,49.1112588 23.2781689,49.1112588 L39.5728871,49.1112588 C40.1406473,49.1112588 40.5380795,48.7138266 40.5380795,48.2596184 C40.5380795,47.7486342 40.1406473,47.3512021 39.5728871,47.3512021 L24.9814495,47.3512021 L35.4282375,31.340364 Z M10.6738921,16.7489264 C14.0804534,15.0456457 15.8972861,14.1372294 20.0419357,14.3075575 C21.4613362,14.3643335 22.8239607,14.9320937 23.675601,15.8405101 C26.6847302,18.6793111 24.8111215,22.4833046 22.8807367,25.3788817 L0.624536239,59.3877187 C0.227104087,60.0122549 0.738088282,60.8071192 1.53295259,60.8071192 L40.1406473,60.8071192 C40.5948555,60.8071192 40.9922877,60.4096871 40.9922877,59.9554789 C40.9922877,59.3877187 40.5948555,58.9902865 40.1406473,58.9902865 L3.17945722,58.9902865 L24.4704654,26.4008501 C26.9686103,22.6536327 28.785443,17.9412229 25.0382256,14.4778855 C23.7891531,13.2855891 22.0290964,12.5475008 20.0987117,12.4907248 C15.670182,12.2636207 13.5126932,13.172037 9.87902778,15.0456457 C9.36804358,15.2727498 9.19771552,15.8405101 9.48159562,16.3514942 C9.59514767,16.7489264 10.1629079,17.0328065 10.6738921,16.7489264 Z M81.019383,13.115261 L63.6459203,13.115261 C63.1917121,13.115261 62.79428,13.5126932 62.79428,14.0804534 L62.79428,23.505273 C62.79428,24.0162572 63.1349361,24.4136893 63.5891443,24.4136893 C71.1403552,25.4924337 76.3069732,27.5931465 79.6567584,30.5454997 C82.8362157,33.3275247 84.1988402,37.0179661 84.1988402,41.5600479 C84.1988402,46.1589056 82.6091116,50.4171073 79.6567584,53.4830124 C76.9315094,56.4353656 72.9571879,58.3657503 68.131226,58.5928544 C62.1697438,58.8767345 54.5049808,57.8547661 48.8841547,55.6972773 C48.4299465,55.4701732 47.9189623,55.6972773 47.6918582,56.2082615 C47.5215302,56.6624697 47.7486342,57.2302299 48.2596184,57.4005579 C54.1075487,59.6715988 61.9994157,60.7503432 68.1880021,60.4096871 C73.5817241,60.069031 77.9534778,58.0250942 81.019383,54.7888609 C84.2556162,51.3255236 86.0156729,46.6698898 86.0156729,41.5600479 C86.0156729,36.506982 84.4827203,32.3623324 80.8490549,29.0693231 C77.4424936,26.060194 72.1623236,23.9027051 64.6111127,22.7104087 L64.6111127,14.9320937 L81.019383,14.9320937 C81.4735911,14.9320937 81.9277993,14.5346616 81.9277993,14.0804534 C81.9277993,13.5126932 81.4735911,13.115261 81.019383,13.115261 Z M81.019383,1.76005667 L52.404268,1.76005667 C51.8365078,1.76005667 51.4390757,2.21426485 51.4390757,2.72524904 L51.4390757,32.5326604 C51.4390757,33.0436446 51.8932838,33.3843008 52.404268,33.4410768 C59.6715988,33.952061 64.5543367,35.0308054 67.7337939,36.3366539 C71.5377873,37.9263825 72.7300838,39.7999912 72.7868598,41.3897198 C72.7868598,45.9318016 67.5634658,47.3512021 63.9298004,47.3512021 C60.5800152,47.4647541 56.0379334,46.7266659 50.3035552,44.6827291 C49.8493471,44.512401 49.2815868,44.7395051 49.1112588,45.2504893 C48.9409307,45.7046975 49.2248108,46.2724577 49.679019,46.4427857 C55.6972773,48.4867225 60.3529111,49.2815868 63.9865765,49.2815868 C68.7557623,49.1112588 74.7172446,47.067322 74.6604685,41.3897198 C74.5469165,39.1186789 73.1275159,36.563758 68.4151061,34.6333732 C65.2356489,33.3275247 60.4096871,32.1920043 53.2559084,31.6242441 L53.2559084,3.63366539 L81.019383,3.63366539 C81.4735911,3.63366539 81.9277993,3.17945722 81.9277993,2.72524904 C81.9277993,2.21426485 81.4735911,1.76005667 81.019383,1.76005667 Z M91.1822908,59.2173906 L122.636207,4.14464958 C122.863311,3.63366539 122.749759,3.17945722 122.352327,2.95235313 C121.841343,2.611697 121.273582,2.78202506 121.046478,3.17945722 L89.5925622,58.3657503 C89.3654582,58.7631825 89.4790102,59.2741667 89.9899944,59.5580468 C90.4442026,59.7851508 90.9551868,59.6715988 91.1822908,59.2173906 Z M158.802533,31.340364 C161.527782,27.1957144 162.947182,24.2433613 162.776854,19.1335193 C162.54975,14.1372294 160.392261,9.76547573 157.042476,6.5292425 C153.635915,3.23623324 149.037057,1.13552043 143.927215,0.851640325 C139.044477,0.624536239 135.751468,1.24907248 131.209386,3.12268119 C130.811954,3.4065613 130.58485,3.9175455 130.755178,4.37175367 C130.982282,4.82596184 131.493266,5.10984195 131.947474,4.82596184 C136.1489,3.12268119 139.271581,2.44136893 143.870439,2.72524904 C148.469297,2.95235313 152.613946,4.82596184 155.793404,7.77831497 C158.802533,10.7306681 160.789693,14.7049896 160.960022,19.2470714 C161.187126,23.9027051 159.710949,26.5711782 157.212804,30.2616196 L145.8576,47.7486342 C145.403392,48.4299465 145.8576,49.1112588 146.652464,49.1112588 L162.947182,49.1112588 C163.514942,49.1112588 163.912375,48.7138266 163.912375,48.2596184 C163.912375,47.7486342 163.514942,47.3512021 162.947182,47.3512021 L148.298969,47.3512021 L158.802533,31.340364 Z M133.991411,16.7489264 C137.454749,15.0456457 139.271581,14.1372294 143.416231,14.3075575 C144.835631,14.3643335 146.198256,14.9320937 147.049896,15.8405101 C150.059025,18.6793111 148.185417,22.4833046 146.255032,25.3788817 L123.998831,59.3877187 C123.601399,60.0122549 124.055607,60.8071192 124.850472,60.8071192 L163.514942,60.8071192 C163.969151,60.8071192 164.366583,60.4096871 164.366583,59.9554789 C164.366583,59.3877187 163.969151,58.9902865 163.514942,58.9902865 L126.553752,58.9902865 L147.844761,26.4008501 C150.286129,22.6536327 152.159738,17.9412229 148.412521,14.4778855 C147.106672,13.2855891 145.403392,12.5475008 143.473007,12.4907248 C139.044477,12.2636207 136.886988,13.172037 133.196547,15.0456457 C132.742339,15.2727498 132.572011,15.8405101 132.799115,16.3514942 C132.969443,16.7489264 133.537203,17.0328065 133.991411,16.7489264 Z M204.336902,13.115261 L187.020215,13.115261 C186.566007,13.115261 186.168575,13.5126932 186.168575,14.0804534 L186.168575,23.505273 C186.168575,24.0162572 186.452455,24.4136893 186.963439,24.4136893 C194.51465,25.4924337 199.681268,27.5931465 203.031054,30.5454997 C206.210511,33.3275247 207.516359,37.0179661 207.516359,41.5600479 C207.516359,46.1589056 205.926631,50.4171073 203.031054,53.4830124 C200.305805,56.4353656 196.331483,58.3657503 191.505521,58.5928544 C185.544039,58.8767345 177.879276,57.8547661 172.25845,55.6972773 C171.747466,55.4701732 171.293257,55.6972773 171.066153,56.2082615 C170.895825,56.6624697 171.122929,57.2302299 171.633914,57.4005579 C177.481844,59.6715988 185.373711,60.7503432 191.562297,60.4096871 C196.956019,60.069031 201.327773,58.0250942 204.336902,54.7888609 C207.629911,51.3255236 209.389968,46.6698898 209.389968,41.5600479 C209.389968,36.506982 207.857015,32.3623324 204.22335,29.0693231 C200.760013,26.060194 195.536619,23.9027051 187.985408,22.7104087 L187.985408,14.9320937 L204.336902,14.9320937 C204.847886,14.9320937 205.302094,14.5346616 205.302094,14.0804534 C205.302094,13.5126932 204.847886,13.115261 204.336902,13.115261 Z M204.336902,1.76005667 L175.721787,1.76005667 C175.210803,1.76005667 174.813371,2.21426485 174.813371,2.72524904 L174.813371,32.5326604 C174.813371,33.0436446 175.267579,33.3843008 175.721787,33.4410768 C183.045894,33.952061 187.928632,35.0308054 191.108089,36.3366539 C194.912082,37.9263825 196.104379,39.7999912 196.161155,41.3897198 C196.161155,45.9318016 190.937761,47.3512021 187.24732,47.3512021 C183.95431,47.4647541 179.412229,46.7266659 173.67785,44.6827291 C173.223642,44.512401 172.655882,44.7395051 172.485554,45.2504893 C172.315226,45.7046975 172.54233,46.2724577 173.053314,46.4427857 C179.071572,48.4867225 183.67043,49.2815868 187.360872,49.2815868 C192.130057,49.1112588 198.09154,47.067322 197.977988,41.3897198 C197.921212,39.1186789 196.501811,36.563758 191.789401,34.6333732 C188.609944,33.3275247 183.783982,32.1920043 176.630204,31.6242441 L176.630204,3.63366539 L204.336902,3.63366539 C204.847886,3.63366539 205.302094,3.17945722 205.302094,2.72524904 C205.302094,2.21426485 204.847886,1.76005667 204.336902,1.76005667 Z" id="Shape"></path>
            </g>
        </g>
    </g>
</svg>