<?xml version="1.0" standalone="no"?><!DOCTYPE svg PUBLIC "-//W3C//DTD SVG 1.1//EN" "http://www.w3.org/Graphics/SVG/1.1/DTD/svg11.dtd"><svg t="1558616075881" class="icon" style="" viewBox="0 0 1024 1024" version="1.1" xmlns="http://www.w3.org/2000/svg" p-id="1102" xmlns:xlink="http://www.w3.org/1999/xlink" width="64" height="64"><defs><style type="text/css"></style></defs><path d="M512 954.89473643C267.38947373 954.89473643 69.10526357 756.61052627 69.10526357 512S267.38947373 69.10526357 512 69.10526357 954.89473643 267.38947373 954.89473643 512 756.61052627 954.89473643 512 954.89473643z m0-33.15789404c226.30263135 0 409.73684239-183.43421016 409.73684239-409.73684239S738.30263135 102.26315761 512 102.26315761 102.26315761 285.69736865 102.26315761 512 285.69736865 921.73684239 512 921.73684239z" fill="#ffffff" p-id="1103"></path><path d="M606.73684239 374.96315761a23.68421016 23.68421016 0 0 1 23.68421014 23.68421104V642.26315761a23.68421016 23.68421016 0 0 1-47.36842118 1e-8V398.64736865a23.68421016 23.68421016 0 0 1 23.68421103-23.68421103zM440.94736865 374.96315761a23.68421016 23.68421016 0 0 1 23.68421016 23.68421104V642.26315761a23.68421016 23.68421016 0 0 1-47.3684212 1e-8V398.64736865a23.68421016 23.68421016 0 0 1 23.68421104-23.68421103z" fill="#ffffff" p-id="1104"></path></svg>