<?xml version="1.0" standalone="no"?><!DOCTYPE svg PUBLIC "-//W3C//DTD SVG 1.1//EN" "http://www.w3.org/Graphics/SVG/1.1/DTD/svg11.dtd"><svg t="1558616081539" class="icon" style="" viewBox="0 0 1024 1024" version="1.1" xmlns="http://www.w3.org/2000/svg" p-id="1227" xmlns:xlink="http://www.w3.org/1999/xlink" width="64" height="64"><defs><style type="text/css"></style></defs><path d="M512 62c-249.10714248 0-450 200.89285752-450 450s200.89285752 450 450 450 450-200.89285752 450-450-200.89285752-450-450-450z m0 863.03571416c-228.21428584 0-413.03571416-184.82142832-413.03571416-413.03571416s184.82142832-413.03571416 413.03571416-413.03571416 413.03571416 184.82142832 413.03571416 413.03571416-184.82142832 413.03571416-413.03571416 413.03571416z" fill="#ffffff" p-id="1228"></path><path d="M399.5 367.35714248h225c17.67857168 0 32.14285752 14.46428584 32.14285752 32.14285752v225c0 17.67857168-14.46428584 32.14285752-32.14285752 32.14285752h-225c-17.67857168 0-32.14285752-14.46428584-32.14285752-32.14285752v-225c0-17.67857168 14.46428584-32.14285752 32.14285752-32.14285752z" fill="#ffffff" p-id="1229"></path></svg>