<?xml version="1.0" encoding="UTF-8"?>
<svg width="31px" height="42px" viewBox="0 0 31 42" version="1.1" xmlns="http://www.w3.org/2000/svg" xmlns:xlink="http://www.w3.org/1999/xlink">
    <!-- Generator: Sketch 52.2 (67145) - http://www.bohemiancoding.com/sketch -->
    <title>Shape</title>
    <desc>Created with Sketch.</desc>
    <g id="Page-1" stroke="none" stroke-width="1" fill="none" fill-rule="evenodd">
        <g id="water_droplets" transform="translate(-0.312500, 0.625000)" fill="#FFFFFF" fill-rule="nonzero">
            <path d="M15.6300873,0.115845809 C24.0535385,0.115845809 30.9061058,6.72017782 30.9061058,14.8368357 C30.9061058,17.5254149 30.1461239,20.1567091 28.7089051,22.4455659 L16.6981355,40.2905015 C16.4613573,40.640577 16.0667268,40.8518952 15.6428173,40.8518952 C15.2201808,40.8518952 14.8230043,40.64185 14.587499,40.2905015 L2.58054842,22.4901209 C1.11659665,20.1630741 0.354068722,17.5279609 0.354068722,14.8368357 C0.354068722,6.72017782 7.20663603,0.115845809 15.6300873,0.115845809 Z M15.6415443,37.3002209 L26.5766275,21.0567212 C27.7350589,19.208323 28.3601027,17.0454933 28.3601027,14.8368357 C28.3601027,8.12429852 22.6494178,2.6618489 15.6300873,2.6618489 C8.61075674,2.6618489 2.90007181,8.12429852 2.90007181,14.8368357 C2.90007181,17.0480393 3.52638857,19.213415 4.71409901,21.1012763 L15.6415443,37.3002209 Z" id="Shape" transform="translate(15.630087, 20.483871) rotate(-180.000000) translate(-15.630087, -20.483871) "></path>
        </g>
    </g>
</svg>