<?xml version="1.0" standalone="no"?><!DOCTYPE svg PUBLIC "-//W3C//DTD SVG 1.1//EN" "http://www.w3.org/Graphics/SVG/1.1/DTD/svg11.dtd"><svg t="1558429665399" class="icon" style="" viewBox="0 0 1024 1024" version="1.1" xmlns="http://www.w3.org/2000/svg" p-id="6548" xmlns:xlink="http://www.w3.org/1999/xlink" width="64" height="64"><defs><style type="text/css"></style></defs><path d="M807.36 110.784l-81.92 0 0 40.448 81.92 0c21.76 0 39.36 18.112 39.36 40.448l0 687.488c0 22.336-17.664 40.448-39.36 40.448L216.64 919.616c-21.76 0-39.36-18.112-39.36-40.448L177.28 191.68c0-22.336 17.664-40.448 39.36-40.448l85.312 0L301.952 110.784 216.64 110.784c-43.52 0-78.784 36.224-78.784 80.896l0 687.488C137.856 923.776 173.12 960 216.64 960l590.784 0c43.52 0 78.784-36.224 78.784-80.896L886.208 191.68C886.144 147.008 850.88 110.784 807.36 110.784z" p-id="6549" fill="#bfbfbf"></path><path d="M420.096 110.784l187.264 0 0 40.448-187.264 0 0-40.448Z" p-id="6550" fill="#bfbfbf"></path><path d="M274.048 318.4l472.64 0 0 40.448-472.64 0 0-40.448Z" p-id="6551" fill="#bfbfbf"></path><path d="M274.048 439.744l472.64 0 0 40.448-472.64 0 0-40.448Z" p-id="6552" fill="#bfbfbf"></path><path d="M274.048 561.088l275.712 0 0 40.448-275.712 0 0-40.448Z" p-id="6553" fill="#bfbfbf"></path><path d="M656.384 185.344l19.712 0c10.88 0 19.712-9.024 19.712-20.224L695.808 84.224C695.808 73.024 686.976 64 676.096 64l-19.712 0c-10.88 0-19.712 9.024-19.712 20.224L636.672 165.12C636.736 176.256 645.504 185.344 656.384 185.344z" p-id="6554" fill="#bfbfbf"></path><path d="M351.168 185.344l19.712 0c10.88 0 19.712-9.024 19.712-20.224L390.592 84.224C390.592 73.024 381.76 64 370.88 64L351.168 64c-10.88 0-19.712 9.024-19.712 20.224L331.456 165.12C331.456 176.256 340.288 185.344 351.168 185.344z" p-id="6555" fill="#bfbfbf"></path></svg>