<?xml version="1.0" standalone="no"?><!DOCTYPE svg PUBLIC "-//W3C//DTD SVG 1.1//EN" "http://www.w3.org/Graphics/SVG/1.1/DTD/svg11.dtd"><svg t="1558616065359" class="icon" style="" viewBox="0 0 1024 1024" version="1.1" xmlns="http://www.w3.org/2000/svg" p-id="837" xmlns:xlink="http://www.w3.org/1999/xlink" width="64" height="64"><defs><style type="text/css"></style></defs><path d="M512 64.094784c-247.369947 0-447.905216 200.531176-447.905216 447.905216 0 247.368924 200.535269 447.905216 447.905216 447.905216 247.371994 0 447.905216-200.536292 447.905216-447.905216C959.905216 264.626983 759.371994 64.094784 512 64.094784zM512 927.912571c-229.701542 0-415.912571-186.211029-415.912571-415.912571 0-229.702566 186.211029-415.912571 415.912571-415.912571 229.702566 0 415.912571 186.208982 415.912571 415.912571C927.911548 741.701542 741.702566 927.912571 512 927.912571z" fill="#ffffff" p-id="838"></path><path d="M401.083841 667.969261 678.904311 512 401.083841 356.030739Z" fill="#ffffff" p-id="839"></path></svg>